# xmcd
#
# Track frame offsets:
#	150
#	73104
#	111973
#	136552
#	194409
#	253757
#
# Disc length: 4539 seconds
#
# Revision: 8
# Processed by: cddbd v1.5.2PL0 Copyright (c) Steve Scherf et al.
# Submitted via: Jack! The Knife 19 Blackthorn
#
DISCID=5411b906
DTITLE=Dream Theater - Black Clouds and Silver Linings
DYEAR=2009
DGENRE=Metal
TTITLE0=A Nightmare To Remember
TTITLE1=A Rite Of Passage
TTITLE2=Wither
TTITLE3=The Shattered Fortress
TTITLE4=The Best Of Times
TTITLE5=The Count Of Tuscany
EXTD=John Petrucci and Mike Portnoy
EXTT0=Petrucci, Portnoy, Myung, Rudess
EXTT1=Petrucci, Portnoy, Myung, Rudess
EXTT2=Petrucci, Portnoy, Myung, Rudess
EXTT3=Petrucci, Portnoy, Myung, Rudess
EXTT4=Petrucci, Portnoy, Myung, Rudess
EXTT5=Petrucci, Portnoy, Myung, Rudess
PLAYORDER=
